<svg xmlns="http://www.w3.org/2000/svg" viewBox="0 0 982 779" version="1" width="982px" height="779px"><path d="M978 582L549 335c-5-3-13-3-19 1L324 454l-2 2-32 18c-5 4-6 9-1 12l415 249c5 3 28 1 33-3l206-118 3-2 31-18c6-4 6-9 1-12z" fill="#d9e9ff"/><path d="M934 280a13 13 0 0 0 0-1v-2a18 18 0 0 0-1-1v-1l-1-1v-1l-1-1v-1h-1v-1h-1v-1h-1v-1a24 24 0 0 0-1-1 14 14 0 0 0-1 0v-1h-1l-10-6L521 32h-1a159 159 0 0 0-3-2h-4l-1 1-16 11 402 228a3850 3850 0 0 0 12 6v1l1 1h1v1l1 1h1v1l1 1v1h1v2l1 1v1a16 16 0 0 1 0 1v1a22 22 0 0 1 1 2l-1 36-7 3 1 1-7 3a762 762 0 0 0 4 3l1 1h1v1a23 23 0 0 1 2 1v1l1 1v1h1v1l1 1v2l1 1a15 15 0 0 1 0 1l-5 183-2 8 2-3-1 56-3 7 4-4-1 4 13-9c2-2 4-3 4-6l6-241v-3a16 16 0 0 0 0-1l1-56v-3z" fill="#bfbfbf"/><path d="M909 337c5 3 9 10 9 15l-6 244c0 6-5 8-10 4L497 367c-6-4-10-11-10-16l7-244c0-6 4-7 10-4z" fill="#ededed"/><path d="M909 308c5 3 9 0 9 6l-5 254c-1 5-6 7-11 4L497 338c-6-3-10-10-10-15l7-245c0-5 5-7 10-4z" fill="#59596c"/><path d="M909 276c5 3 10 10 10 16l-6 244c-1 5-6 7-11 4L497 306c-6-3-10 9-9 3l6-263c0-5 5-7 10-4z" fill="#59596c"/><path d="M908 306c0-5-4-11-9-14L516 74c-6-3-10-1-10 3l-1 30-1 1-5 205c0 5 6 13 11 16l379 216c5 3 9 1 10-3l1-30v-1z" fill="#b3daff"/><path d="M896 304c0-4-4-9-8-11L571 116c-4-3-8-2-8 2l-1 24v1l-4 167c0 4 5 11 9 13l313 175c5 3 8 2 8-2l1-24v-1z" fill="#8aa8c4"/><path d="M903 617v-16l-15 10-4-8-390-225c-4-3-14-2-19 1l-169 97v-3l-26 12-3-1v12c0 2 1 4 3 4l406 235c5 3 13 3 18 0l195-112c3-2 4-4 4-6z" fill="#bfbfbf"/><path d="M686 720L280 485c-5-2-4-7 1-10l195-113c5-3 13-3 18 0l406 234c5 3 4 7-1 11L704 719c-5 3-14 3-18 1z" fill="#ededed"/><path d="M500 405h-3l-24-15-1-1 16-9h3l25 14v2zm29 42h-3l-25-14v-2l16-9h3l24 15 1 1zm-15 18h-3l-24-14-1-2 17-9h2l25 14v2zm-39 4l-3-1-24-14-1-2 16-9h3l25 15v1zm-68-10l-3-1-24-14-1-1 19-12 3 1 25 14v2zm43 24h-4l-32-19-1-2 19-11 3 1 33 18 1 2zm212 123l-3-1-24-14-1-1 7-4h3l24 14 1 2zm33 19h-3l-24-14-1-2 7-4h2l25 15 1 1zm35 20l-3-1-24-14-1-1 7-4h2l25 15v1zm-22-27l-2-1-25-14-1-1 7-4h3l24 14 1 2zm-89-37h-3l-160-93v-1l19-12 2 1 161 92v2z" fill="#7b7b91"/><path d="M445 477l-19-11 1-1 19 11zm-48-30l-8-5h1l8 4zm112 41h-3l-25-15v-1l16-10 3 1 25 14v2zm34 20l-3-1-25-14v-1l16-10h3l25 15v1zm34 19h-3l-25-14v-2l16-9h3l24 14c1 1 2 1 1 2zm34 20l-3-1-25-14v-1l16-10 3 1 24 14 1 1zm34 19h-3l-25-14v-2l16-9h3l24 14 1 2zm33 20h-2l-25-15v-1l16-10 3 1 24 14 1 1zm77 44h-3l-67-39v-2l16-9h3l67 39v2zM548 483l-3-1-24-14-1-1 16-10h3l25 15v1zm34 21h-3l-25-14v-2l16-9h3l25 14v2zm34 20l-3-1-25-14v-1l16-10 3 1 25 14v1zm34 19h-3l-25-14v-2l16-9h3l24 14 1 2zm34 20h-3l-25-15v-1l16-10 3 1 24 14 1 1zm34 19h-3l-25-14v-2l16-9h3l24 15 1 1zm33 20h-2l-25-14v-2l16-9h3l24 14 1 2zM562 467h-2l-25-15-1-1 17-10 2 1 25 14 1 2zm34 20l-2-1-25-14-1-2 17-9h2l25 15 1 1zm34 19h-2l-25-14-1-2 17-9h2l25 14 1 2zm34 20l-3-1-24-14-1-1 17-10 2 1 25 14v1zm34 19h-3l-24-14-1-2 17-9h2l25 14v2zm34 20h-3l-24-15-1-1 16-10 3 1 25 14v1zm34 19h-3l-24-14c-1-1-2-1-1-2l16-9h3l25 14v2zM495 428h-3l-42-25v-1l16-10 3 1 41 24 1 1zm327 163h-2l-42-24-1-2 17-9h2l42 24 1 2zM480 446l-3-1-49-29-1-1 16-10 3 1 50 29v1zm-39 3h-3l-33-20v-1l16-10 3 1 33 19v2zm93-24l-3-1-24-14-1-1 16-10h3l25 15v1zm34 19h-3l-25-14v-2l16-9h3l24 14c1 1 2 1 1 2zm34 20l-3-1-25-14v-1l16-10h3l24 15 1 1zm34 19h-3l-25-14v-2l16-9h3l24 14 1 2zm33 20h-2l-25-15v-1l16-10 3 1 24 14 1 1zm34 19h-2l-25-14v-2l16-9h3l24 14 1 2zm34 20h-2l-25-15-1-1 17-10 2 1 25 14 1 2zm34 20l-2-1-25-14-1-2 17-9h2l25 15 1 1z" fill="#7b7b91"/><path d="M791 579l-1-1-2 1-16 9v1l1 1 6 3-21 13h-1l1 1 17 10h2l39-22v-2zM437 441h-1l-18-11h-1l2-1 19 11z" fill="#7b7b91"/><path d="M612 445h-1l-24 13c-7 4-9 13-6 20s11 9 17 5l24-14h1c6-3 9-12 6-19s-11-9-17-5z" fill="#ff5c97"/><path d="M611 476l-108 61-8-12 118-68z" fill="#ffce6b"/><path d="M495 525c-2-7-7-2-6-11l105-60c10-2 18-2 19 3z" fill="#f2b63f"/><path d="M600 451l-11 6c9-4 22 18 10 26l12-7c13-7 1-33-11-25z" fill="#e1eaf4"/><path d="M488 515l-19 29 33-5c7-8-7-29-14-24z" fill="#ffe7db"/><path d="M467 545l10-14s2-1 4 2 3 0 4 4l2 4z" fill="#78494c"/><path d="M503 539l-1-2c0-21-12-22-13-22a2 2 0 0 1 1-4s16 2 15 26z" fill="#fff"/><path d="M908 712l26-15-25-15-26 15z" fill="#dbefff"/><path d="M908 712v29l26-14v-30z" fill="#9ec2ff"/><path d="M908 712l-25-15v29l26 15v-29z" fill="#bad4ff"/><path d="M929 721l-13 7v-13l13-8z" fill="#fff"/><path d="M527 712l26-15-26-15-26 15z" fill="#dbefff"/><path d="M527 712v29l26-14v-30z" fill="#9ec2ff"/><path d="M527 712l-26-15v29l27 15v-29z" fill="#bad4ff"/><path d="M548 721l-13 7v-13l13-8z" fill="#fff"/><path d="M35 710l35-20-35-20-35 20z" fill="#dbefff"/><path d="M35 710v40l35-20v-40z" fill="#9ec2ff"/><path d="M35 710L0 690v39l36 21v-40z" fill="#bad4ff"/><path d="M63 722l-18 11v-19l18-10z" fill="#fff"/><g transform="translate(-243 -97)"><path d="M638 705l25 17 19-42-26-15z" fill="#fff"/><path d="M585 699h-2l17 37 7-12-16-27z" fill="#ffb491"/><path d="M600 652l-16 23c-5 6-7 13-5 21l4 7h2l7-4 1-2c-1-1-2-4 0-8 2-5 19-25 19-25z" fill="#e3edff"/><path d="M634 643c-3 9-9 12-15 6s-8-18-6-27c3-9 10-11 15-5 6 5 9 17 6 26z" fill="#ffc2b0"/><path d="M643 641c-2 9-12 12-17 6-6-6-9-18-6-27s9-11 15-6c6 6 11 18 8 27z" fill="#ffb491"/><path d="M622 666h-1c-4 0-6-4-5-7l4-18c1-4 4-6 7-5h1c4 1 6 4 5 8l-1 18c-1 3-7 5-10 4z" fill="#ffb491"/><path d="M614 642s-1 6 10 7c8 0 6-16 14-17 10-1 12-13 8-18-4-4-14-7-22-3-7 3-23 6-10 31z"/><circle r="4" cy="636" cx="635" fill="#ffb491"/><path d="M597 735l3-23c1-8-3-23-3-32 0-24-1-33 16-28l4 1c3 1 5 1 7 3 22 11 28 15 27 28 0 22-6 21-5 41-5 15-44 21-49 10z" fill="#e3edff"/><path d="M633 650l-1-2 5 1z" fill="#f09a82"/><circle r="11" cy="625" cx="612"/><path d="M617 651c-2-1-3 1-3 3s2 4 5 6c6 2 12 1 14 0l1-1c-4-2-11-7-17-8z" fill="#b9cbed"/><path d="M680 693c-2-2-5-1-6 1l-6 8c-1 3-1 5 2 7 2 1 4 1 6-2l6-8c1-2 0-5-2-6z" fill="#ffb491"/><path d="M654 723v-5l15-16 7 5-13 16c-4 5-8 6-9 0z" fill="#ffb491"/><path d="M641 688l5 37s-5 17-11 18z" fill="#b9cbed"/><path d="M602 850l9-2c5-3 8-5 10-4l1 1c3 1 3 4 0 6l-12 10c-3 2-7 2-9 0 0 0-2-1-1-6 0-4 0-4 2-5z" fill="#4a232f"/><path d="M611 851c-1 6-10 5-10 1l-3-120 30-3z" fill="#ffb491"/><path d="M633 862l8 1c7-1 10-2 12 1h1c2 3 1 5-3 6l-15 6c-4 0-8-1-9-4 0 0-2-3 1-8 1-3 2-2 5-2z" fill="#4a232f"/><path d="M636 865c-2 5-9 5-9 1 4-48-6-93-17-136l34-4c2 51 1 95-8 139z" fill="#ffb491"/><path d="M646 719l2 84s-17 27-51-2l1-38c-4-18-5-38 0-47 16 11 31 12 48 3z" fill="#ff5c97"/><path d="M598 763l9 7s-10-10-11-15z" fill="#de5aa9"/><path d="M622 727c-17 0-25-9-25-10a2 2 0 0 1 3-2s15 17 45 3a2 2 0 1 1 2 3c-10 4-18 6-25 6z" fill="#732944"/><path d="M650 674s8 17 7 42l1 9c0 3-3 4-7 4-2 0-4-2-5-5-2-7-6-24-6-32 2-13 10-18 10-18z" fill="#e3edff"/><path d="M612 637a1 1 0 0 1 0-2c9-2 10-6 10-10 0-8-5-11-5-11a1 1 0 0 1 1-1s6 3 6 12c0 6-3 10-11 12z" fill="#fff"/></g><path d="M218 669c12 8 33 10 46 3 12-7 13-19 0-28-12-8-33-9-46-2-13 6-13 19 0 27z" fill="#d9e9ff"/><path d="M230 645l82-48-81-47-83 48z" fill="#d9e9ff"/><path d="M179 614l82-47-81-47-83 47z" fill="#e6cca3"/><path d="M179 614v60l82-47v-60z" fill="#b89662"/><path d="M179 614l-82-47v57l84 50z" fill="#e6bb79"/><path d="M167 656l-16-9v-13l16 10zm-21-12l-17-10v-22l17 9zm-38-22l16 10v-38l-16-10z" fill="#fff"/><path d="M242 584s-14 27-31 19c-17-7 18-27 18-27z" fill="#ad696e"/><path d="M198 503c2 12 6 20 12 30 2 4 4 7 3 10l-3 16c-1 6 8 6 9 0 1-10 6-17 1-26l-8-14c-3-6-4-12-5-18s-10-4-9 2z" fill="#ffb491"/><path d="M196 504c3 10 8 20 13 31 2 7 14 4 11-4l-13-31c-2-7-14-4-11 4z" fill="#e69f35"/><path d="M192 570c11 4 23 13 29 24 3 6 2 12 2 18l-2 34c0 9 10 9 11 1 0-13 3-25 4-38 1-9-1-17-6-24-7-11-19-21-31-26-8-4-14 7-7 11z" fill="#ffc4a8"/><path d="M270 620c-9-10-15-24-25-34-7-5-14-9-22-6-11 3-19 3-29-3-6-4-13 7-6 11 9 6 18 8 29 7l10-3h2c3 0 6 3 8 5 10 9 15 18 24 28 6 6 17 2 11-4z" fill="#ffb491"/><path d="M269 635l1-1-1-1-1 1v2z" fill="#2c1f9c"/><path d="M270 633l-3-3h-1v1l2 3 2 1z" fill="#2c1f9c"/><path d="M260 627l8 8h2l-4-4 3-1c5 2 5 6 8 5 0 0 8-1 13-6 0 0 2-3-1-4-4-2-19-4-22-5h-1l-6-3c-2 1-3 4-2 6 0 1 0 3 2 4z" fill="#4a232f"/><path d="M260 616l4 1 16 6c3 1-2 11-18 2-9-4-2-9-2-9z" fill="#ffb491"/><path d="M206 552c22 14 39 22 36 32 0 0-10-7-19-2-8 5-7 9-8 12-2 8-2 11-4 9-8-6-39-7-40-27-1-16 2-18 2-18s21 10 33-6z" fill="#78494c"/><path d="M223 659v-1l1-1h-2l-1 1z" fill="#2c1f9c"/><path d="M224 658v-4l-1-1-1 1v4l1 1z" fill="#2c1f9c"/><path d="M219 647l2 11 2 1v-5l2 1c3 4 1 7 4 9 0 0 7 3 14 2 0 0 3-1 2-3l-16-18-4-6c-1-1-4 1-5 3z" fill="#4a232f"/><path d="M226 638l3 3 10 14c1 3-9 8-16-9-5-8 3-8 3-8z" fill="#ffc4a8"/><path d="M156 520c-2 8-2 15-1 23 0 7-2 15 0 22 1 5 5 7 9 7l23 2c6 0 6-9 0-10l-20-1c-3 0-3 1-4-2l1-20v-19c1-6-8-8-8-2zm57 48c3 0 5-2 6-5l2-11c0-3-2-5-5-6-3 0-5 2-6 4l-2 12c0 3 2 5 5 6z" fill="#ffb491"/><path d="M184 575v-1l1 1v-1l33-19h2l14 8 3 1v1l-35 20h-1l-17-9z" fill="#a8c4e5"/><path d="M202 584l35-20v-1l-17-9h-2l-34 20v1l17 9z" fill="#bad4ff"/><path d="M200 571l8-4v-1l-4-2-9 5 4 2z" fill="#a8c4e5"/><path d="M203 562l2-3 34-19h1l1 1h-1l-3 21-2 3-32 18-1 1c-1 1-3-1-3-1z" fill="#fff"/><path d="M202 585l34-19 2-3 3-21-1-1-34 20-2 2-3 21c0 1 0 2 1 1z" fill="#9ebbde"/><path d="M200 573c1-3-1-6-4-7l-9-3c-3-1-6 1-7 4s1 6 4 6l9 4c3 0 6-1 7-4z" fill="#ffb491"/><path d="M220 565h3l2-3c1-1 0-2-2-1z" fill="#fff"/><path d="M203 507l4 12-1 33s-10 19-33 6l-11-36z" fill="#ffc248"/><path d="M162 527h-4c-1-5-7-7 2-17 1-1 21-11 31-13 5-1 7-2 9 3l6 12c1 11-4-3-5 3l-2 18-1 9-19 14-9-17z" fill="#ffc248"/><path d="M203 508s8 5 9 16c0 10-8 17-8 17z" fill="#ffc248"/><path d="M206 538h-6l6 4zm-25 24l-2-14 8-5s-14 6-18-13c0 0-3-8-12-1l16 29z" fill="#e69f35"/><path d="M157 512c-6 15-4 29-4 44 0 8 13 8 12 0 0-14-1-27 4-40 3-8-9-11-12-4z" fill="#ffc248"/><path d="M190 498s10 9 2 17-24-7-24-7c8-6 15-9 22-10z" fill="#ffb491"/><path d="M186 519c-8 0-18-10-19-10a1 1 0 1 1 2-2c1 0 15 14 22 7 2-2 3-3 3-6 0-5-5-9-5-9a1 1 0 1 1 2-2s5 5 6 11c0 3-2 6-4 8s-4 3-7 3z" fill="#fff"/><path d="M168 508c8-6 15-9 22-10" fill="#ffc2b0"/><path d="M204 480c2 4 2 8 0 11l-2 1-3 5v1l-2-1-2-2c-1-1-25 13-26 11-2-2 4-29 5-32 0-3 18 1 21-1l2-1c0-1 1-3 2-2l2 3z"/><path d="M187 505l4-19-12 3-3 16c-1 2 7 9 11 0z" fill="#ffb491"/><path d="M187 498h3c5 0 9-4 9-9l1-16c0-5-4-9-9-9h-3c-5 0-9 4-10 9v16c0 5 4 9 9 9z" fill="#ffb491"/><path d="M184 477c4-4 11 1 15 0 4-2 2-6-1-9-1-2-3-4-7-5-10-4-20 1-21 12 0 0-1 16 8 19l1-2s-5-6 1-10l1-3c0-2 2 0 3-2z"/><path d="M176 492c2 1 4 1 4-1 1-2 0-5-1-6s-4-1-5 1c0 2 0 4 2 6z" fill="#ffb491"/><path d="M201 486s0-5-13-12-1-1-1-1l13-3s5 6 1 16z"/><path d="M185 477s-10 14-9 22c0 8 8 12 10 23 0 3-3 4-4 2l-7-7c-7-4-13-9-13-13 0-10 8-31 8-31l16-1z"/><path d="M189 498l-7-1 6 4z" fill="#ea8a6c"/><g><path d="M380 277l-42 25c-4 2-7 0-7-4l-1-25c0-4 4-10 8-12l42-25c4-2 7 0 7 5v24c0 4-3 10-7 12z" fill="#b3daff"/><path d="M382 275l11 6c3 1 2 3 0 3l-44-2z" fill="#b3daff"/><path d="M372 259c0 3 2 5 5 3s5-5 5-8-2-4-5-3c-3 2-5 5-5 8zm-17 10c0 3 2 4 5 3 3-2 5-5 5-8s-2-5-5-3c-3 1-5 5-5 8zm-17 10c0 3 2 4 5 3 3-2 5-6 5-9s-2-4-5-2c-3 1-5 5-5 8z" fill="#fff"/></g><g><path d="M878 308c0-4-4-9-8-11L535 109c-4-2-8-1-8 3l-5 203c0 4 5 11 9 13l330 185c5 3 9 2 9-2l1-25v-2z" fill="#fff"/></g><g><path d="M877 334l1-26c0-4-4-9-8-11L535 109c-4-2-8-1-8 3l-1 27z" fill="#96949c"/></g><g><path d="M550 136c0 3-2 4-4 3-3-2-4-5-4-8 0-2 1-3 4-2 2 1 4 4 4 7z" fill="#fd67c1"/></g><g><path d="M566 145c0 3-2 4-4 3s-4-5-4-7c0-3 2-4 4-3z" fill="#fff"/></g><g><path d="M582 155c0 2-2 4-4 2-2-1-4-4-4-7s2-4 4-2c2 1 4 4 4 7z" fill="#babaff"/></g><g><path d="M556 229h-1z" fill="#dcdcf7"/></g><g><path d="M743 280l-113-65-85-49c-2-1-4 0-4 3l-3 144c0 3 2 6 4 7l113 66 85 49c2 1 4-1 4-3l3-145c0-2-1-6-4-7z" fill="#dcdcf7"/></g><g><path d="M646 293l-36-21c-2-1-3-4-3-7l1-40c0-3 1-4 3-3l36 21c2 1 3 4 3 7l-1 40c0 3-1 4-3 3z" fill="#fff"/></g><g><path d="M593 262l-35-21c-2-1-4-4-4-7l1-40c0-3 2-4 4-3l35 20c2 1 4 5 4 7l-1 41c0 2-2 4-4 3z" fill="#fff"/></g><g><path d="M642 363l-87-50c-3-1-4-4-4-7l1-47c0-3 2-4 4-3l87 51c2 1 4 4 4 7l-1 47c0 2-2 4-4 2z" fill="#fff"/></g><g><path d="M563 315l-1-1 1-42h1v1l-1 42s0 1 0 0z" fill="#dcdcf7"/></g><g><path d="M577 324l-1-1v-1l1-42h1v1l-1 42z" fill="#dcdcf7"/></g><g><path d="M590 332v-1l1-43h1v1l-1 42z" fill="#dcdcf7"/></g><g><path d="M604 340v-1l1-43h1v1l-1 42z" fill="#dcdcf7"/></g><g><path d="M618 348v-1l1-42v-1h1v1l-1 43z" fill="#dcdcf7"/></g><g><path d="M562 314h1l69 41 1 1h-1l-69-41z" fill="#dcdcf7"/></g><g><path d="M632 356v-1l1-42v-1l1 1-1 43z" fill="#dcdcf7"/></g><g fill="#4949de"><path d="M630 316c-3 0-6-1-9-4-9-7-12-8-20-2-10 6-14 3-22-5l-5-4c-3-2-6-4-8-3-4 1-5 5-5 5a1 1 0 1 1-2-1s2-5 6-6c3-1 7 1 11 4l4 4c8 7 12 10 20 4 9-6 12-5 22 3 8 7 14 0 15 0a1 1 0 1 1 1 1s-3 4-8 4z"/><path d="M592 313c0 2-1 2-2 2l-1-4c0-1 0-2 2-1zm23-6c0 1-1 2-2 1l-2-3c0-1 1-2 2-1z"/></g><g><path d="M549 231l-4-3-1-1 1-1 5 3v1z" fill="#dcdcf7"/></g><g><path d="M839 491l-76-44-3-6 4-142c0-2 1-4 3-2l76 43c2 1 3 4 3 6l-3 143c-1 2-2 3-4 2z" fill="#dcdcf7"/></g><g><path d="M836 462l-3-1-42-25c-3-1-5-5-5-8l1-30 1-3h4l43 24c2 2 5 5 4 8v31l-2 3zm-2-2h3l1-2 1-31c0-2-2-6-5-7l-42-24-3-1-1 3-1 30c0 3 2 6 4 8z" fill="#fff"/></g><g><path d="M843 456l-43-25c-2-1-4-4-4-7l1-31c0-3 2-4 4-2l43 24c3 1 5 5 5 8l-1 30c0 3-2 4-5 3z" fill="#54ded5"/><path d="M800 431c-2-1-3-4-2-5l9-10c1-2 4 0 5 2l10 23 8-5c2-1 4 0 6 3l9 15c1 1 0 3-1 2z" fill="#9c7b60"/><path d="M841 421c0 2-2 2-3 1-2-1-3-3-3-5 0-1 1-2 3-1 1 1 3 3 3 5zm-34-1l5 3 3 2-3-7c-1-2-4-4-5-2l-3 3zm29 19c-2-3-4-4-6-3l-2 2 3 3 8 4z" fill="#fff"/></g><g><path d="M827 378l-36-19c-3-2-5-7-5-11v-39c0-5 2-7 5-5l36 20c3 1 5 6 5 10v40c0 4-2 6-5 4z" fill="#bf4571"/><path d="M830 379l-10 6-43-75 10-6z" fill="#bf4571"/><path d="M816 384l-35-19c-3-2-6-7-6-11v-39c0-5 3-7 6-5l36 20c3 1 5 6 5 10v40c0 4-3 6-6 4z" fill="#ff5c97"/><path d="M820 327l-1-1-16-49a1 1 0 1 1 2 0l16 48a1 1 0 0 1-1 2z" fill="#7a7a7a"/><path d="M788 309h-1v-1l16-31V165a1 1 0 1 1 2 0v113l-16 31z" fill="#7a7a7a"/><path d="M813 376l-28-17c-2-1-4-5-4-8v-31c0-3 2-4 4-3l28 16c2 2 4 6 4 9v30c0 4-2 5-4 4z" fill="#fff"/><path d="M807 367c2 1 4-1 4-3l-2-5-2-2-2-3h-1l-1-2-1-1a836 836 0 0 1 1-10v-2a5 5 0 0 0 0-3v-1l-3-5-4-1c-1 0-2 0-2 2v2a16 16 0 0 0 0 3v2l1 3a11 11 0 0 0 1 4v3h-4c-1 0-3 1-3 5 0 2 0 3 2 4zm-3-23z" fill="#ff5c97"/></g><g><path d="M718 407l-52-30c-5-3-9-11-8-17l1-100c1-6 5-9 10-6l51 30c5 2 9 10 9 16l-2 100c0 7-4 10-9 7z" fill="#fff"/></g><g transform="translate(-243 -97)"><path d="M980 644l-7-14-89 59c-3 2-4 6-2 10 2 3 7 4 10 2zm72 41l-7-13-89 58c-4 2-4 7-2 10s7 4 10 2z" fill="#bacdeb"/><path d="M1046 688l-3-3-35-180c-1-5 4-9 9-6l36 184c1 4-4 7-7 5zm-68-51l-3-4-35-179c-1-5 4-9 9-6l36 184c1 4-4 7-7 5z" fill="#a38165"/><path d="M894 700l-12 6 54-239 10 6-50 223c0 2 0 3-2 4z" fill="#a38165"/><path d="M996 568l-71-41 10-7 65 38zm-61-101s12-49 55-24c43 24 30 73 30 73l-11-7s13-36-19-59-44 23-44 23z" fill="#a38165"/><path d="M1003 579l-80-46 2-6 79 46z" fill="#d6a985"/><path d="M986 611l-71-41 11-7 65 37z" fill="#a38165"/><path d="M994 621l-80-46 1-5 80 46z" fill="#d6a985"/><path d="M977 654l-71-41 11-7 65 37z" fill="#a38165"/><path d="M984 664l-79-46 1-5 79 46z" fill="#d6a985"/><path d="M968 697l-72-42 11-6 65 37z" fill="#a38165"/><path d="M975 707l-80-46 1-6 80 46z" fill="#d6a985"/><path d="M966 743l-11 6 54-240 11 7-51 222c0 2-1 4-3 5z" fill="#a38165"/><path d="M952 749c-2-1-2-2-2-4l58-245a55 55 0 0 0-7-38c-5-8-11-14-17-18-16-8-29-7-38 3-8 9-11 22-11 23l-50 233c0 2-3 3-5 2s-2-3-2-4l53-235c0-1 3-15 11-24 5-6 12-9 19-9 10-1 20 3 32 12l1 1s9 7 13 19c4 10 9 23 5 39l-55 243c-1 2-3 3-5 2z" fill="#d6a985"/><path d="M917 618l8-1c6-3 8-5 11-3s2 4 0 6l-12 9c-3 2-7 1-9-1 0 0-2-1-1-6zm45-35l9 4c7 1 10 0 12 3v1c2 3 0 5-4 5l-17 2c-4 0-8-1-7-5 0 0-1-4 3-8 2-3 1-2 4-2z" fill="#4a232f"/><path d="M956 423l40 18 18-20 9 6-21 26c-2 3-6 4-9 3l-26-10z" fill="#ffc2b0"/><path d="M934 424l-1-1c-3-1-5-4-4-7l6-18c1-3 5-5 8-4h1c3 1 5 4 4 8l-3 17c-1 4-8 5-11 5z" fill="#f09a82"/><path d="M957 396c0 11-12 12-18 7-7-5-10-15-8-25 1-9 12-15 19-10 6 6 7 18 7 28z" fill="#ffc2b0"/><circle r="5" cy="377" cx="952"/><circle r="5" cy="371" cx="951"/><path d="M947 408c-9-1-12-5-5-11 0 0 1 9 8 9 0 0-2 0-3 2z" fill="#f09a82"/><path d="M926 401s2 6 8 6c9 0 5-21 14-25 5-2 9-8 4-12-4-4-8-5-17-2-8 3-24 9-9 33z"/><path d="M942 398a4 4 0 1 1 1-8z" fill="#ffae96"/><path d="M966 587c-1 4-9 2-8-2l3-13 9 2z" fill="#fff"/><path d="M962 494l21 26c4 5 5 13 3 19l-18 44c-2 2-14 0-12-7l12-43-38-25z" fill="#bad4f5"/><path d="M924 620c0 4-9 3-8-1v-13l9 1z" fill="#fff"/><path d="M939 512l-12 98c0 6-13 6-13 0l-3-107z" fill="#bad4f5"/><path d="M950 518c-6-4-25-4-34-9-6-4-6-6-6-12v-7l48 11z" fill="#9ec2ff"/><path d="M909 488l-1-26v-39c2-11 10-17 19-15l9 2c24 10 26 5 29 32l-2 50c8 14-53 26-54-4z" fill="#ffd22d"/><path d="M927 408s0 7 7 9c7 3 14-2 14-2s-13-7-21-7z" fill="#fff"/><path d="M944 392l-2-1v-8l2-1 2 1v8z"/><path d="M1013 429c-2-3-1-7 2-9l3-3a7 7 0 1 1 7 11l-3 2c-3 2-7 1-9-1z" fill="#ffc2b0"/><path d="M966 442c-3-19-3-19-13-23 1 4 5 6 6 12l-7 73c9-3 14-8 11-13z" fill="#e69f35"/><path d="M959 445l18 8c6 3 16-16 12-18-1 0-29-20-38-19-14 2-7 22 8 29z" fill="#ffd22d"/></g><g transform="translate(-243 -97)"><path d="M687 574l-12-12c-2-1-6-2-8-1-2 0-2 1-2 2l-1 3c0 3 0 4 2 5l14 7c2 2 5 2 7 1l1-1c1-1 1-3-1-4z" fill="#4a232f"/><path d="M665 561c0 4 10 4 10 0v-13h-10z" fill="#c6d2f2"/><path d="M719 557l-12-13-8-1-2 3v2c-1 4 0 4 2 5l13 8h7c2-1 2-3 0-4z" fill="#4a232f"/><path d="M697 544c0 4 10 4 10 0v-13h-10z" fill="#c6d2f2"/><path d="M696 540c4 3 10 3 12 0l10-121-30-9z" fill="#ceab8b"/><path d="M664 553c3 4 10 5 12 1l20-137h-35zm27-99l1 10 8-30-4 1z" fill="#ceab8b"/><path d="M714 344l13 25c-2 9-7 14-13 16l-5-34z" fill="#56547f"/><path d="M706 379v-1c14-4 19-16 19-16l1 1a33 33 0 0 1-20 16z" fill="#fff"/><path d="M718 414v-47c0-26-10-36-27-30l-7 2c-20 11-30 10-26 32l3 46c0 24 58 26 57-3z" fill="#56547f"/><path d="M671 379l-9 36-1 3-1-17z" fill="#2c1f9c"/><path d="M691 336l-4 2c-2 0-13-12-5-24 5-7 18 0 18 0z"/><path d="M690 331c0 7 5 11 10 8 6-4 11-13 11-20s-5-12-11-8c-5 3-10 12-10 20z" fill="#ffb491"/><path d="M683 326c0 8 7 13 13 9 6-3 10-12 10-20s-4-11-10-7c-6 3-13 11-13 18z" fill="#ffb491"/><path d="M689 349h1c3 0 5-1 6-4l2-15c1-3-1-6-4-6h-1c-2-1-5 1-5 4l-5 14c0 3 4 6 6 7z" fill="#ffb491"/><circle r="3" cy="329" cx="685" fill="#ffb491"/><path d="M702 314s-2 18-20 12c0 0-9-12 4-21 12-8 21 5 21 5z"/><path d="M711 322s-2-6-9-8l5-4s6 1 4 12z"/><path d="M680 393a3 3 0 0 1-3-3v-13l1-1 7-4h2l1 1v14c0 4-4 6-8 6zm6-20l-8 4v14l2 1c3 0 7-2 7-5v-14z" fill="#fff"/><path d="M677 381v-1c5-1 8-3 10-6l1 1c-2 3-5 5-11 6z" fill="#fff"/><path d="M697 339s-7 0-11-6c0 0 4 10 10 11z" fill="#f09a82"/><path d="M694 449l37-21c3-2 6-6 6-11v-41c0-4-3-6-6-4l-37 20c-3 2-6 7-6 11l1 41c0 4 2 6 5 5z" fill="#bf4571"/><path d="M691 449l11 6 43-77-10-6z" fill="#bf4571"/><path d="M705 455l37-21c3-1 6-6 6-11v-40c0-5-3-7-6-5l-37 20c-3 2-6 7-6 11v41c0 4 3 6 6 5z" fill="#ff5c97"/><path d="M725 425l-3-1c-2-2-4-4-4-8 0-7 5-14 11-18 3-2 6-2 8-1 3 2 4 5 4 8 0 7-5 15-11 18zm9-25l-4 1c-4 3-8 10-8 15 0 2 0 4 2 5l5-1c4-3 8-10 8-15 0-2 0-4-2-5zm-20 36a2 2 0 0 1-2-3l5-7a2 2 0 1 1 3 2l-5 7z" fill="#fff"/><path d="M660 378s-12 19 9 50c6 8 38 11 38 11v-7s-22-2-28-11c-6-11-1-48-19-43z" fill="#ffb491"/><path d="M711 443l-4-1c-2-1-4-3-4-6s2-5 4-5l4 1c2 0 5 3 5 6s-3 5-5 5z" fill="#ffc2b0"/><path d="M674 373l2 31c0 3-22 3-22-1 0-1-3-38 5-49 7-9 15 4 15 19z" fill="#56547f"/><path d="M665 398l-12-3 1-1c12 6 21 1 22 1v1s-4 2-11 2z" fill="#fff"/><path d="M744 409l-2-3c-1-3 0-6 3-8 2-2 5-1 6 1l2 3c1 3 0 6-3 8-2 2-5 1-6-1z" fill="#ffc2b0"/></g><g transform="translate(-243 -97)"><path d="M912 240c2 0 47 16 47-21s-57 5-57 5z" fill="#616191"/><path d="M860 320l15-15 10-1c1 0 2 1 2 3l1 3c0 4 0 5-3 6l-15 10h-10c-2-2-2-4 0-6z" fill="#4a232f"/><path d="M886 306c0 4-11 4-11 0v-14h11z" fill="#fff"/><path d="M889 336l13-16c1-2 6-3 9-3l3 2v3c1 5 1 5-1 7l-15 11c-2 2-6 3-8 2h-1c-3-1-3-4 0-6z" fill="#4a232f"/><path d="M913 319c0 4-11 6-11 1l-2-14 11-1z" fill="#fff"/><path d="M910 206s-33 17-35 26a668 668 0 0 0 1 68c3 1 9 3 11-4 3-9 2-41 9-51s40-22 40-22z" fill="#616191"/><path d="M932 221s-37 19-38 27a639 639 0 0 0 8 64c3 1 9 2 11-4 2-9 0-40 6-49 4-5 13-10 28-17 7-4 12-17 4-18z" fill="#616191"/><path d="M900 154l-7 27-2 14c-2 8 1 18 6 24l5-19 8-25z" fill="#ffc2b0"/><path d="M911 136l-17 28c2 10 7 14 13 17l6-36z" fill="#bad4f5"/><path d="M915 176c-16-6-19-14-19-14a2 2 0 0 1 4-2s2 8 16 12a2 2 0 0 1-1 4z" fill="#fff"/><path d="M906 205c2-15 2-23-1-43 0-27 9-37 26-30l7 1c20 11 30 11 27 33l-4 47c0 25-57 20-55-8z" fill="#bad4f5"/><path d="M928 132l4 3c1 0 16-12 11-25-4-9-20-2-20-2z"/><path d="M933 143h-1c-3 1-6-1-6-4l-3-15c0-3 2-6 5-6 3-1 6 1 6 4l5 14c0 3-4 7-6 7z" fill="#ffc2b0"/><path d="M925 134s7 0 11-6c0 0-4 10-10 11z" fill="#f09a82"/><path d="M930 127c-1 7-7 9-12 5-4-4-7-14-6-21 2-8 7-10 12-6s8 14 6 22z" fill="#ffc2b0"/><path d="M938 124c-2 7-10 10-14 6-5-5-8-14-7-22 2-7 7-9 12-5s10 13 9 21z" fill="#ffc2b0"/><path d="M927 108s0 14 12 15c0 0 11-9 0-21-10-10-21 1-21 1z"/><path d="M912 114s3-5 10-6l-4-5s-6 0-6 11z" fill="#21ded5"/><path d="M934 115c-3-3-9-2-16 3-8 2-10-7-10-7-2-4 1-6 5-8l11-5c6-3 14 1 16 5v1c2 4-2 9-6 11z"/><circle r="3" cy="125" cx="936" fill="#ffc2b0"/><path d="M925 134s-5 8 2 11c13 6 17-8 15-9l-4-2s3 4-1 7c-3 2-9 3-11-1z" fill="#fff"/><path d="M947 162v47l8-5z" fill="#98c1f5"/><path d="M937 226l-4-1v-1l-30-15h-1l-12 6-2 1v1h1l30 16h1c0 3 1 5 3 4l13-8z" fill="#a8c4e5"/><path d="M921 236l-36-19v-1l15-9h2l35 19v1l-15 9z" fill="#e1eaf4"/><path d="M922 224l-9-5 4-2 9 4v1z" fill="#a8c4e5"/><path d="M918 215l-2-2-35-18-1-1v1l-1 1h1l5 19 2 2 33 17 1 1v1l2-1z" fill="#fff"/><path d="M921 237l-37-21-5-19c-1-1 0-2 1-1l35 18 2 2 5 20z" fill="#9ebbde"/><path d="M901 217c0 1-1 2-2 1l-3-3c0-1 0-2 2-1z" fill="#fff"/><path d="M948 162l5 42c0 2-34 13-34 13l3 12 34-9c10-4 9-11 9-17v-36z" fill="#ffc2b0"/><path d="M947 167l3 31c1 2 24-3 23-7 0-1-3-37-13-46-8-7-15 8-13 22z" fill="#bad4f5"/><path d="M953 192l-4-1a2 2 0 0 1 1-3c1 0 9 2 20-6a2 2 0 1 1 2 3c-8 6-15 7-19 7z" fill="#fff"/></g><g><path d="M596 263l-36-20c-3-2-5-6-5-11v-39c0-4 2-6 5-5l36 20c3 2 5 6 5 11v39c0 4-2 6-5 5z" fill="#e69f35"/><path d="M599 263l-10 6-42-75 9-6z" fill="#e69f35"/><path d="M585 269l-35-20c-3-2-6-6-6-11v-39c0-4 3-6 6-5l36 20c3 2 5 6 5 11v39c0 4-2 6-6 5z" fill="#ffd22d"/></g><g><path d="M560 220l-7 3-2-1v-3l7-3 3 1z" fill="#fff"/><path d="M558 234l-7-12v-3l2 2 7 12v2c-1 1-2 0-2-1zm17-6l7 12 2 1v-2l-7-12c0-1-1-2-2-1z" fill="#fff"/><path d="M578 246l6-5v-2l-2-2-7 5v2zM565 240l4-8-1-2-2-1-4 8v3z" fill="#fff"/><path d="M569 233l4-8-1-3h-2l-4 7 1 3z" fill="#fff"/></g><g><path d="M604 580l-35-22c-3-2-9-2-13 0l-35 20c-4 2-5 5-2 7l36 23c3 1 9 1 12-1l36-20c4-2 4-5 1-7z" fill="#19bfa3"/><path d="M606 583l1-13h-89l-1 12z" fill="#19bfa3"/><path d="M605 567l-36-22c-3-2-9-2-12 1l-36 20c-4 2-4 5-1 7l35 22c3 2 9 2 13 0l35-20c4-2 5-6 2-8z" fill="#27e0c0"/></g><g><path d="M257 733l-36-23c-3-2-8-1-12 1l-36 20c-4 2-4 5-1 7l36 22c3 2 8 2 12 0l36-20c4-2 4-6 1-7z" fill="#7363ff"/><path d="M259 735v-12h-89v12z" fill="#7363ff"/><path d="M257 720l-36-22c-3-2-8-2-12 0l-36 20c-3 2-4 6-1 8l36 22c3 2 9 2 12 0l36-21c4-2 4-5 1-7z" fill="#aaa1ff"/></g><g><path d="M549 582c2-1 6 0 5 1 0 2 3 3 6 4h2c3 0 5-2 5-3 0-2 4-3 6-2 2 2 5 2 8 1l1-1c2-1 2-3 0-4-2-2 0-3 2-3 4 0 6-2 6-3v-1c0-2-2-4-5-4s-4-2-2-3 2-3 0-4l-1-1h-8c-2 1-5 0-5-2 0-1-3-3-6-3h-1c-4 0-6 1-6 3 0 1-4 2-6 1h-9c-2 1-2 4 0 5s0 3-2 3c-3 0-6 1-6 3v1c0 2 2 3 5 3s4 2 2 3-2 3 0 5h1c2 2 6 2 8 1zm3-18c6-3 14-2 20 1 5 3 5 8-1 11-5 3-14 3-20 0-5-4-5-9 1-12z" fill="#fff"/></g><g><path d="M206 735l1 1c2 1 3 1 5-1l7-4c4-2 6-2 8-1h1c-2-2-1-3 2-5l8-4c2-1 2-2 1-3h-1l3-2 3 1c3 3 3 4-2 7l-8 4c-1 1-2 2 0 4l-4 2h-6l-8 4c-4 3-7 3-11 1l-2-2zm-15-5l-3-2c-3-2-3-3 1-6l9-4c1-1 2-2 0-4l3-2h7l7-5c5-2 8-2 12 0l2 1-3 2h-6l-7 5c-4 2-6 2-9 1 2 1 1 3-2 5l-8 4c-2 1-2 2-1 3h1z" fill="#fff"/></g></svg>

